<svg width="55" height="25" viewBox="0 0 55 25" fill="none" xmlns="http://www.w3.org/2000/svg">
<path fill-rule="evenodd" clip-rule="evenodd" d="M24.778 21.2701H29.222C32.343 21.2701 33.904 21.2701 35.025 20.5351C35.5088 20.2182 35.9254 19.8091 36.251 19.3311C37 18.2311 37 16.6981 37 13.6341C37 10.5701 37 9.03707 36.251 7.93707C35.9254 7.45906 35.5088 7.04992 35.025 6.73307C34.305 6.26007 33.403 6.09107 32.022 6.03107C31.363 6.03107 30.796 5.54107 30.667 4.90607C30.5684 4.44093 30.3123 4.0241 29.9418 3.72602C29.5714 3.42793 29.1095 3.26687 28.634 3.27007H25.366C24.378 3.27007 23.527 3.95507 23.333 4.90607C23.204 5.54107 22.637 6.03107 21.978 6.03107C20.598 6.09107 19.696 6.26107 18.975 6.73307C18.4915 7.05003 18.0753 7.45916 17.75 7.93707C17 9.03707 17 10.5691 17 13.6341C17 16.6991 17 18.2301 17.749 19.3311C18.073 19.8071 18.489 20.2161 18.975 20.5351C20.096 21.2701 21.657 21.2701 24.778 21.2701ZM27 9.54307C24.699 9.54307 22.833 11.3741 22.833 13.6331C22.833 15.8921 24.7 17.7261 27 17.7261C29.3 17.7261 31.167 15.8941 31.167 13.6351C31.167 11.3761 29.3 9.54307 27 9.54307ZM27 11.1791C25.62 11.1791 24.5 12.2781 24.5 13.6341C24.5 14.9891 25.62 16.0881 27 16.0881C28.38 16.0881 29.5 14.9891 29.5 13.6341C29.5 12.2791 28.38 11.1791 27 11.1791ZM31.722 10.3611C31.722 9.90907 32.095 9.54307 32.556 9.54307H33.666C34.126 9.54307 34.5 9.90907 34.5 10.3611C34.4979 10.58 34.409 10.7891 34.2528 10.9424C34.0966 11.0958 33.8859 11.1809 33.667 11.1791H32.556C32.4475 11.1801 32.3399 11.1598 32.2393 11.1193C32.1387 11.0787 32.047 11.0188 31.9696 10.9428C31.8921 10.8668 31.8304 10.7764 31.7879 10.6766C31.7454 10.5767 31.723 10.4695 31.722 10.3611Z" fill="#A3A3A3"/>
<path d="M54 2.27002V22.27" stroke="#8F9BB3" stroke-width="0.5"/>
</svg>
