<svg width="56" height="25" viewBox="0 0 56 25" fill="none" xmlns="http://www.w3.org/2000/svg">
<path d="M1 2.27002V22.27" stroke="#8F9BB3" stroke-width="0.5"/>
<path d="M22.5 20.27C20.9833 20.27 19.6877 19.745 18.613 18.695C17.5383 17.645 17.0007 16.3617 17 14.845C17 13.545 17.3917 12.3867 18.175 11.37C18.9583 10.3534 19.9833 9.70335 21.25 9.42002C21.6667 7.88669 22.5 6.64502 23.75 5.69502C25 4.74502 26.4167 4.27002 28 4.27002C29.95 4.27002 31.6043 4.94935 32.963 6.30802C34.3217 7.66669 35.0007 9.32069 35 11.27C36.15 11.4034 37.1043 11.8994 37.863 12.758C38.6217 13.6167 39.0007 14.6207 39 15.77C39 17.02 38.5627 18.0827 37.688 18.958C36.8133 19.8334 35.7507 20.2707 34.5 20.27H22.5Z" fill="#A3A3A3"/>
<path d="M55 2.27002V22.27" stroke="#8F9BB3" stroke-width="0.5"/>
</svg>
