<svg width="55" height="25" viewBox="0 0 55 25" fill="none" xmlns="http://www.w3.org/2000/svg">
<path d="M20 21.27C19.45 21.27 18.9793 21.0744 18.588 20.683C18.1967 20.2917 18.0007 19.8207 18 19.27V5.27002C18 4.72002 18.196 4.24935 18.588 3.85802C18.98 3.46669 19.4507 3.27069 20 3.27002H34C34.55 3.27002 35.021 3.46602 35.413 3.85802C35.805 4.25002 36.0007 4.72069 36 5.27002V19.27C36 19.82 35.8043 20.291 35.413 20.683C35.0217 21.075 34.5507 21.2707 34 21.27H20ZM22 17.27H32C32.2 17.27 32.35 17.1784 32.45 16.995C32.55 16.8117 32.5333 16.6367 32.4 16.47L29.65 12.795C29.55 12.6617 29.4167 12.595 29.25 12.595C29.0833 12.595 28.95 12.6617 28.85 12.795L26.25 16.27L24.4 13.795C24.3 13.6617 24.1667 13.595 24 13.595C23.8333 13.595 23.7 13.6617 23.6 13.795L21.6 16.47C21.4667 16.6367 21.45 16.8117 21.55 16.995C21.65 17.1784 21.8 17.27 22 17.27Z" fill="#A3A3A3"/>
<path d="M54 2.27002V22.27" stroke="#8F9BB3" stroke-width="0.5"/>
</svg>
