<svg width="54" height="25" viewBox="0 0 54 25" fill="none" xmlns="http://www.w3.org/2000/svg">
<path d="M27 3.52002C26.138 3.52002 25.3114 3.86243 24.7019 4.47192C24.0924 5.08142 23.75 5.90807 23.75 6.77002V12.77C23.75 13.632 24.0924 14.4586 24.7019 15.0681C25.3114 15.6776 26.138 16.02 27 16.02C27.862 16.02 28.6886 15.6776 29.2981 15.0681C29.9076 14.4586 30.25 13.632 30.25 12.77V6.77002C30.25 5.90807 29.9076 5.08142 29.2981 4.47192C28.6886 3.86243 27.862 3.52002 27 3.52002Z" fill="#A3A3A3"/>
<path d="M22.75 12.77C22.75 12.5711 22.671 12.3803 22.5303 12.2397C22.3897 12.099 22.1989 12.02 22 12.02C21.8011 12.02 21.6103 12.099 21.4697 12.2397C21.329 12.3803 21.25 12.5711 21.25 12.77C21.25 14.1651 21.7572 15.5127 22.6771 16.5615C23.597 17.6104 24.8668 18.289 26.25 18.471V19.52H24C23.8011 19.52 23.6103 19.599 23.4697 19.7397C23.329 19.8803 23.25 20.0711 23.25 20.27C23.25 20.4689 23.329 20.6597 23.4697 20.8004C23.6103 20.941 23.8011 21.02 24 21.02H30C30.1989 21.02 30.3897 20.941 30.5303 20.8004C30.671 20.6597 30.75 20.4689 30.75 20.27C30.75 20.0711 30.671 19.8803 30.5303 19.7397C30.3897 19.599 30.1989 19.52 30 19.52H27.75V18.471C29.1332 18.289 30.403 17.6104 31.3229 16.5615C32.2428 15.5127 32.75 14.1651 32.75 12.77C32.75 12.5711 32.671 12.3803 32.5303 12.2397C32.3897 12.099 32.1989 12.02 32 12.02C31.8011 12.02 31.6103 12.099 31.4697 12.2397C31.329 12.3803 31.25 12.5711 31.25 12.77C31.25 13.8972 30.8022 14.9782 30.0052 15.7752C29.2082 16.5723 28.1272 17.02 27 17.02C25.8728 17.02 24.7918 16.5723 23.9948 15.7752C23.1978 14.9782 22.75 13.8972 22.75 12.77Z" fill="#A3A3A3"/>
</svg>
