<svg width="45" height="25" viewBox="0 0 45 25" fill="none" xmlns="http://www.w3.org/2000/svg">
<g clip-path="url(#clip0_449_8733)">
<path d="M27.75 0.27002H17.25C16.6533 0.27002 16.081 0.507072 15.659 0.929029C15.2371 1.35099 15 1.92328 15 2.52002V22.02C15 22.6168 15.2371 23.1891 15.659 23.611C16.081 24.033 16.6533 24.27 17.25 24.27H27.75C28.3467 24.27 28.919 24.033 29.341 23.611C29.7629 23.1891 30 22.6168 30 22.02V2.52002C30 1.92328 29.7629 1.35099 29.341 0.929029C28.919 0.507072 28.3467 0.27002 27.75 0.27002ZM22.5 22.77C22.3033 22.7699 22.1085 22.731 21.9268 22.6556C21.7451 22.5802 21.5801 22.4698 21.441 22.3306C21.1603 22.0494 21.0027 21.6683 21.003 21.271C21.0031 21.0743 21.042 20.8795 21.1174 20.6978C21.1928 20.5161 21.3033 20.3511 21.4425 20.2121C21.7236 19.9313 22.1047 19.7738 22.502 19.774C22.8993 19.7743 23.2802 19.9324 23.561 20.2135C23.8417 20.4946 23.9993 20.8757 23.999 21.273C23.9987 21.6703 23.8407 22.0512 23.5595 22.332C23.2784 22.6127 22.8973 22.7703 22.5 22.77Z" fill="#A3A3A3"/>
</g>
<defs>
<clipPath id="clip0_449_8733">
<rect width="15" height="24" fill="white" transform="translate(15 0.27002)"/>
</clipPath>
</defs>
</svg>
