<svg width="321" height="25" viewBox="0 0 321 25" fill="none" xmlns="http://www.w3.org/2000/svg">
<g clip-path="url(#clip0_449_8732)">
<path d="M57.75 0.27002H47.25C46.6533 0.27002 46.081 0.507072 45.659 0.929029C45.2371 1.35099 45 1.92328 45 2.52002V22.02C45 22.6168 45.2371 23.1891 45.659 23.611C46.081 24.033 46.6533 24.27 47.25 24.27H57.75C58.3467 24.27 58.919 24.033 59.341 23.611C59.7629 23.1891 60 22.6168 60 22.02V2.52002C60 1.92328 59.7629 1.35099 59.341 0.929029C58.919 0.507072 58.3467 0.27002 57.75 0.27002ZM52.5 22.77C52.3033 22.7699 52.1085 22.731 51.9268 22.6556C51.7451 22.5802 51.5801 22.4698 51.441 22.3306C51.1603 22.0494 51.0027 21.6683 51.003 21.271C51.0031 21.0743 51.042 20.8795 51.1174 20.6978C51.1928 20.5161 51.3033 20.3511 51.4425 20.2121C51.7236 19.9313 52.1047 19.7738 52.502 19.774C52.8993 19.7743 53.2802 19.9324 53.561 20.2135C53.8417 20.4946 53.9993 20.8757 53.999 21.273C53.9987 21.6703 53.8407 22.0512 53.5595 22.332C53.2784 22.6127 52.8973 22.7703 52.5 22.77Z" fill="#A3A3A3"/>
</g>
<path d="M75 2.27002V22.27" stroke="#8F9BB3" stroke-width="0.5"/>
<path d="M96.5 20.27C94.9833 20.27 93.6877 19.745 92.613 18.695C91.5383 17.645 91.0007 16.3617 91 14.845C91 13.545 91.3917 12.3867 92.175 11.37C92.9583 10.3534 93.9833 9.70335 95.25 9.42002C95.6667 7.88669 96.5 6.64502 97.75 5.69502C99 4.74502 100.417 4.27002 102 4.27002C103.95 4.27002 105.604 4.94935 106.963 6.30802C108.322 7.66669 109.001 9.32069 109 11.27C110.15 11.4034 111.104 11.8994 111.863 12.758C112.622 13.6167 113.001 14.6207 113 15.77C113 17.02 112.563 18.0827 111.688 18.958C110.813 19.8334 109.751 20.2707 108.5 20.27H96.5Z" fill="#A3A3A3"/>
<path d="M129 2.27002V22.27" stroke="#8F9BB3" stroke-width="0.5"/>
<path d="M149 21.27C148.45 21.27 147.979 21.0744 147.588 20.683C147.197 20.2917 147.001 19.8207 147 19.27V5.27002C147 4.72002 147.196 4.24935 147.588 3.85802C147.98 3.46669 148.451 3.27069 149 3.27002H163C163.55 3.27002 164.021 3.46602 164.413 3.85802C164.805 4.25002 165.001 4.72069 165 5.27002V19.27C165 19.82 164.804 20.291 164.413 20.683C164.022 21.075 163.551 21.2707 163 21.27H149ZM151 17.27H161C161.2 17.27 161.35 17.1784 161.45 16.995C161.55 16.8117 161.533 16.6367 161.4 16.47L158.65 12.795C158.55 12.6617 158.417 12.595 158.25 12.595C158.083 12.595 157.95 12.6617 157.85 12.795L155.25 16.27L153.4 13.795C153.3 13.6617 153.167 13.595 153 13.595C152.833 13.595 152.7 13.6617 152.6 13.795L150.6 16.47C150.467 16.6367 150.45 16.8117 150.55 16.995C150.65 17.1784 150.8 17.27 151 17.27Z" fill="#A3A3A3"/>
<path d="M183 2.27002V22.27" stroke="#8F9BB3" stroke-width="0.5"/>
<path fill-rule="evenodd" clip-rule="evenodd" d="M207.778 21.2701H212.222C215.343 21.2701 216.904 21.2701 218.025 20.5351C218.509 20.2182 218.925 19.8091 219.251 19.3311C220 18.2311 220 16.6981 220 13.6341C220 10.5701 220 9.03707 219.251 7.93707C218.925 7.45906 218.509 7.04992 218.025 6.73307C217.305 6.26007 216.403 6.09107 215.022 6.03107C214.363 6.03107 213.796 5.54107 213.667 4.90607C213.568 4.44093 213.312 4.0241 212.942 3.72602C212.571 3.42793 212.109 3.26687 211.634 3.27007H208.366C207.378 3.27007 206.527 3.95507 206.333 4.90607C206.204 5.54107 205.637 6.03107 204.978 6.03107C203.598 6.09107 202.696 6.26107 201.975 6.73307C201.492 7.05003 201.075 7.45916 200.75 7.93707C200 9.03707 200 10.5691 200 13.6341C200 16.6991 200 18.2301 200.749 19.3311C201.073 19.8071 201.489 20.2161 201.975 20.5351C203.096 21.2701 204.657 21.2701 207.778 21.2701ZM210 9.54307C207.699 9.54307 205.833 11.3741 205.833 13.6331C205.833 15.8921 207.7 17.7261 210 17.7261C212.3 17.7261 214.167 15.8941 214.167 13.6351C214.167 11.3761 212.3 9.54307 210 9.54307ZM210 11.1791C208.62 11.1791 207.5 12.2781 207.5 13.6341C207.5 14.9891 208.62 16.0881 210 16.0881C211.38 16.0881 212.5 14.9891 212.5 13.6341C212.5 12.2791 211.38 11.1791 210 11.1791ZM214.722 10.3611C214.722 9.90907 215.095 9.54307 215.556 9.54307H216.666C217.126 9.54307 217.5 9.90907 217.5 10.3611C217.498 10.58 217.409 10.7891 217.253 10.9424C217.097 11.0958 216.886 11.1809 216.667 11.1791H215.556C215.448 11.1801 215.34 11.1598 215.239 11.1193C215.139 11.0787 215.047 11.0188 214.97 10.9428C214.892 10.8668 214.83 10.7764 214.788 10.6766C214.745 10.5767 214.723 10.4695 214.722 10.3611Z" fill="#A3A3A3"/>
<path d="M237 2.27002V22.27" stroke="#8F9BB3" stroke-width="0.5"/>
<path d="M264 3.52002C263.138 3.52002 262.311 3.86243 261.702 4.47192C261.092 5.08142 260.75 5.90807 260.75 6.77002V12.77C260.75 13.632 261.092 14.4586 261.702 15.0681C262.311 15.6776 263.138 16.02 264 16.02C264.862 16.02 265.689 15.6776 266.298 15.0681C266.908 14.4586 267.25 13.632 267.25 12.77V6.77002C267.25 5.90807 266.908 5.08142 266.298 4.47192C265.689 3.86243 264.862 3.52002 264 3.52002Z" fill="#A3A3A3"/>
<path d="M259.75 12.77C259.75 12.5711 259.671 12.3803 259.53 12.2397C259.39 12.099 259.199 12.02 259 12.02C258.801 12.02 258.61 12.099 258.47 12.2397C258.329 12.3803 258.25 12.5711 258.25 12.77C258.25 14.1651 258.757 15.5127 259.677 16.5615C260.597 17.6104 261.867 18.289 263.25 18.471V19.52H261C260.801 19.52 260.61 19.599 260.47 19.7397C260.329 19.8803 260.25 20.0711 260.25 20.27C260.25 20.4689 260.329 20.6597 260.47 20.8004C260.61 20.941 260.801 21.02 261 21.02H267C267.199 21.02 267.39 20.941 267.53 20.8004C267.671 20.6597 267.75 20.4689 267.75 20.27C267.75 20.0711 267.671 19.8803 267.53 19.7397C267.39 19.599 267.199 19.52 267 19.52H264.75V18.471C266.133 18.289 267.403 17.6104 268.323 16.5615C269.243 15.5127 269.75 14.1651 269.75 12.77C269.75 12.5711 269.671 12.3803 269.53 12.2397C269.39 12.099 269.199 12.02 269 12.02C268.801 12.02 268.61 12.099 268.47 12.2397C268.329 12.3803 268.25 12.5711 268.25 12.77C268.25 13.8972 267.802 14.9782 267.005 15.7752C266.208 16.5723 265.127 17.02 264 17.02C262.873 17.02 261.792 16.5723 260.995 15.7752C260.198 14.9782 259.75 13.8972 259.75 12.77Z" fill="#A3A3A3"/>
<defs>
<clipPath id="clip0_449_8732">
<rect width="15" height="24" fill="white" transform="translate(45 0.27002)"/>
</clipPath>
</defs>
</svg>
