<svg width="24" height="19" viewBox="0 0 24 19" fill="none" xmlns="http://www.w3.org/2000/svg">
<path d="M14 8.77002H21V3.77002H14V8.77002ZM17.5 7.52002L15 5.77002V4.77002L17.5 6.52002L20 4.77002V5.77002L17.5 7.52002ZM2 18.77C1.45 18.77 0.979333 18.5744 0.588 18.183C0.196667 17.7917 0.000666667 17.3207 0 16.77V2.77002C0 2.22002 0.196 1.74935 0.588 1.35802C0.98 0.966686 1.45067 0.770686 2 0.77002H22C22.55 0.77002 23.021 0.96602 23.413 1.35802C23.805 1.75002 24.0007 2.22069 24 2.77002V16.77C24 17.32 23.8043 17.791 23.413 18.183C23.0217 18.575 22.5507 18.7707 22 18.77H2ZM9 11.77C9.83333 11.77 10.5417 11.4784 11.125 10.895C11.7083 10.3117 12 9.60335 12 8.77002C12 7.93669 11.7083 7.22835 11.125 6.64502C10.5417 6.06169 9.83333 5.77002 9 5.77002C8.16667 5.77002 7.45833 6.06169 6.875 6.64502C6.29167 7.22835 6 7.93669 6 8.77002C6 9.60335 6.29167 10.3117 6.875 10.895C7.45833 11.4784 8.16667 11.77 9 11.77ZM2.1 16.77H15.9C15.2 15.52 14.2333 14.541 13 13.833C11.7667 13.125 10.4333 12.7707 9 12.77C7.56667 12.7694 6.23333 13.1237 5 13.833C3.76667 14.5424 2.8 15.5214 2.1 16.77Z" fill="black"/>
</svg>
